# Alias OBJ Model File
# Exported from SketchUp, (c) 2000-2012 Trimble Navigation Limited
# File units = meters

mtllib box.mtl

g Mesh1 Model

usemtl FrontColor
v -0.947618 0 0.984661
vt 37.3078 -38.7662
vn 0 -1 -0
v -0.947618 0 -1.27534
vt 37.3078 50.2102
v 1.42238 0 -1.27534
vt -55.9993 50.2102
v 1.42238 0 0.984661
vt -55.9993 -38.7662
f 1/1/1 2/2/1 3/3/1 4/4/1 

vt -50.2102 0
vn -1 0 -0
vt 38.7662 0
v -0.947618 1.17 0.984661
vt 38.7662 46.063
v -0.947618 1.17 -1.27534
vt -50.2102 46.063
f 2/5/2 1/6/2 5/7/2 6/8/2 

vt -37.3078 0
vn 0 0 1
vt 55.9993 0
v 1.42238 1.17 0.984661
vt 55.9993 46.063
vt -37.3078 46.063
f 1/9/3 4/10/3 7/11/3 5/12/3 

vt -38.7662 0
vn 1 0 -0
vt 50.2102 0
v 1.42238 1.17 -1.27534
vt 50.2102 46.063
vt -38.7662 46.063
f 4/13/4 3/14/4 8/15/4 7/16/4 

vt -55.9993 0
vn 0 0 -1
vt 37.3078 0
vt 37.3078 46.063
vt -55.9993 46.063
f 3/17/5 2/18/5 6/19/5 8/20/5 

vt -37.3078 50.2102
vn 0 1 -0
vt -37.3078 -38.7662
vt 55.9993 -38.7662
vt 55.9993 50.2102
f 6/21/6 5/22/6 7/23/6 8/24/6